<svg xmlns="http://www.w3.org/2000/svg" xmlns:xlink="http://www.w3.org/1999/xlink" viewBox="0 0 820 220"><defs><linearGradient id="Gradient-0" x1="304.9" y1="-22" x2="304.9" y2="164.5" gradientUnits="userSpaceOnUse"><stop offset=".3" stop-color="#543600" stop-opacity=".75"/><stop offset=".5" stop-color="#000" stop-opacity=".75"/><stop offset=".7" stop-color="#543600" stop-opacity=".75"/></linearGradient><linearGradient id="Gradient-1" x1="-34.7" y1="-12.6" x2="-34.7" y2="106.4" gradientUnits="userSpaceOnUse"><stop offset="0" stop-color="#000"/><stop offset=".5" stop-color="#4a2f1e"/><stop offset="1" stop-color="#000"/></linearGradient><linearGradient id="Gradient-2" x1="29.4" y1="-39.8" x2="29.4" y2="78.5" gradientUnits="userSpaceOnUse"><stop offset="0" stop-color="#000"/><stop offset=".5" stop-color="#4a2f1e"/><stop offset="1" stop-color="#000"/></linearGradient><linearGradient id="Gradient-3" x1="11.1" y1="-39.3" x2="11.1" y2="81.7" gradientUnits="userSpaceOnUse"><stop offset="0" stop-color="#000"/><stop offset=".5" stop-color="#4a2f1e"/><stop offset="1" stop-color="#000"/></linearGradient><linearGradient id="Gradient-4" x1="13.8" y1="-33.5" x2="13.8" y2="147.7" gradientUnits="userSpaceOnUse"><stop offset="0" stop-color="#000"/><stop offset=".5" stop-color="#4a2f1e"/><stop offset="1" stop-color="#000"/></linearGradient><linearGradient id="Gradient-5" x1="-4.9" y1="-13.1" x2="-4.9" y2="108.1" gradientUnits="userSpaceOnUse"><stop offset="0" stop-color="#000"/><stop offset=".5" stop-color="#4a2f1e"/><stop offset="1" stop-color="#000"/></linearGradient><linearGradient id="Gradient-6" x1="-20.4" y1="-40" x2="-20.4" y2="81.3" gradientUnits="userSpaceOnUse"><stop offset="0" stop-color="#000"/><stop offset=".5" stop-color="#4a2f1e"/><stop offset="1" stop-color="#000"/></linearGradient><linearGradient id="Gradient-7" x1="30.2" y1="-112.5" x2="30.2" y2="7.9" gradientUnits="userSpaceOnUse"><stop offset="0" stop-color="#000"/><stop offset=".5" stop-color="#4a2f1e"/><stop offset="1" stop-color="#000"/></linearGradient><linearGradient id="Gradient-8" x1="12.9" y1="-12" x2="12.9" y2="101.6" gradientUnits="userSpaceOnUse"><stop offset="0" stop-color="#000"/><stop offset=".5" stop-color="#4a2f1e"/><stop offset="1" stop-color="#000"/></linearGradient><linearGradient id="Gradient-9" x1="24.7" y1="-52.4" x2="24.7" y2="78.1" gradientUnits="userSpaceOnUse"><stop offset="0" stop-color="#000"/><stop offset=".5" stop-color="#4a2f1e"/><stop offset="1" stop-color="#000"/></linearGradient><linearGradient id="Gradient-10" x1="20.8" y1="-36.2" x2="20.8" y2="75.9" gradientUnits="userSpaceOnUse"><stop offset="0" stop-color="#000"/><stop offset=".5" stop-color="#4a2f1e"/><stop offset="1" stop-color="#000"/></linearGradient><linearGradient id="Gradient-11" x1="7.5" y1="-36.4" x2="7.5" y2="100.2" gradientUnits="userSpaceOnUse"><stop offset="0" stop-color="#000"/><stop offset=".5" stop-color="#4a2f1e"/><stop offset="1" stop-color="#000"/></linearGradient><linearGradient id="Gradient-12" x1="-37.2" y1="-4.3" x2="-37.2" y2="97.7" gradientUnits="userSpaceOnUse"><stop offset="0" stop-color="#fff"/><stop offset=".3" stop-color="#fab518"/></linearGradient><linearGradient id="Gradient-13" x1="-37.2" y1="-4.3" x2="-37.2" y2="97.7" gradientUnits="userSpaceOnUse"><stop offset=".6" stop-color="#f8ec46"/><stop offset=".9" stop-color="#ea5717"/></linearGradient><linearGradient id="Gradient-14" x1="29" y1="-3.5" x2="30.3" y2="69.8" gradientUnits="userSpaceOnUse"><stop offset="0" stop-color="#fff"/><stop offset=".3" stop-color="#fab518"/></linearGradient><linearGradient id="Gradient-15" x1="30.3" y1=".7" x2="30.3" y2="69.8" gradientUnits="userSpaceOnUse"><stop offset=".6" stop-color="#f8ec46"/><stop offset=".9" stop-color="#ea5717"/></linearGradient><linearGradient id="Gradient-16" x1="11.2" y1="-31.3" x2="11.2" y2="72.5" gradientUnits="userSpaceOnUse"><stop offset=".1" stop-color="#fff"/><stop offset=".3" stop-color="#fab518"/></linearGradient><linearGradient id="Gradient-17" x1="11.2" y1="-31.3" x2="11.2" y2="72.5" gradientUnits="userSpaceOnUse"><stop offset=".6" stop-color="#f8ec46"/><stop offset=".9" stop-color="#ea5717"/></linearGradient><linearGradient id="Gradient-18" x1="14.2" y1="-18.8" x2="14.2" y2="139.2" gradientUnits="userSpaceOnUse"><stop offset="0" stop-color="#fff"/><stop offset=".3" stop-color="#fab518"/></linearGradient><linearGradient id="Gradient-19" x1="14.2" y1="-18.8" x2="14.2" y2="139.2" gradientUnits="userSpaceOnUse"><stop offset=".6" stop-color="#f8ec46"/><stop offset=".9" stop-color="#ea5717"/></linearGradient><linearGradient id="Gradient-20" x1="-6.7" y1="-2.2" x2="-6.7" y2="99.1" gradientUnits="userSpaceOnUse"><stop offset="0" stop-color="#fff"/><stop offset=".3" stop-color="#fab518"/></linearGradient><linearGradient id="Gradient-21" x1="-6.7" y1="-2.2" x2="-6.7" y2="99.1" gradientUnits="userSpaceOnUse"><stop offset=".6" stop-color="#f8ec46"/><stop offset=".9" stop-color="#ea5717"/></linearGradient><linearGradient id="Gradient-22" x1="-20.3" y1="-0.8" x2="-20.3" y2="72.8" gradientUnits="userSpaceOnUse"><stop offset="0" stop-color="#fff"/><stop offset=".3" stop-color="#fab518"/></linearGradient><linearGradient id="Gradient-23" x1="-20.3" y1="-0.8" x2="-20.3" y2="72.8" gradientUnits="userSpaceOnUse"><stop offset=".6" stop-color="#f8ec46"/><stop offset=".9" stop-color="#ea5717"/></linearGradient><linearGradient id="Gradient-24" x1="30.3" y1="-68.7" x2="30.3" y2="-1.9" gradientUnits="userSpaceOnUse"><stop offset="0" stop-color="#fff"/><stop offset=".3" stop-color="#fab518"/></linearGradient><linearGradient id="Gradient-25" x1="30.3" y1="-68.7" x2="30.3" y2="-1.9" gradientUnits="userSpaceOnUse"><stop offset=".6" stop-color="#f8ec46"/><stop offset=".9" stop-color="#ea5717"/></linearGradient><linearGradient id="Gradient-26" x1="30" y1="-68.7" x2="30" y2="-6.2" gradientUnits="userSpaceOnUse"><stop offset=".5" stop-color="#f8ed63"/><stop offset="1" stop-color="#ed6e19"/></linearGradient><linearGradient id="Gradient-27" x1="24.2" y1="-31.1" x2="47.2" y2="11.4" gradientUnits="userSpaceOnUse"><stop offset="0" stop-color="#000"/><stop offset=".5" stop-color="#4a2f1e"/><stop offset="1" stop-color="#000"/></linearGradient><linearGradient id="Gradient-28" x1="28.2" y1="-26.1" x2="47.7" y2="3.9" gradientUnits="userSpaceOnUse"><stop offset="0" stop-color="#fff"/><stop offset=".3" stop-color="#fab518"/></linearGradient><linearGradient id="Gradient-29" x1="31.2" y1="-28.1" x2="45.7" y2="3.9" gradientUnits="userSpaceOnUse"><stop offset=".6" stop-color="#f8ec46"/><stop offset=".9" stop-color="#ea5717"/></linearGradient><linearGradient id="Gradient-30" x1="-36.8" y1="-4.4" x2="-36.8" y2="97.8" gradientUnits="userSpaceOnUse"><stop offset="0" stop-color="#fff"/><stop offset=".3" stop-color="#fab518"/></linearGradient><linearGradient id="Gradient-31" x1="-36.8" y1="-4.4" x2="-36.8" y2="97.8" gradientUnits="userSpaceOnUse"><stop offset=".6" stop-color="#f8ec46"/><stop offset=".9" stop-color="#ea5717"/></linearGradient><linearGradient id="Gradient-32" x1="12.6" y1="-1.8" x2="12.6" y2="92.3" gradientUnits="userSpaceOnUse"><stop offset="0" stop-color="#fff"/><stop offset=".3" stop-color="#fab518"/></linearGradient><linearGradient id="Gradient-33" x1="12.6" y1="-1.8" x2="12.6" y2="92.3" gradientUnits="userSpaceOnUse"><stop offset=".6" stop-color="#f8ec46"/><stop offset=".9" stop-color="#ea5717"/></linearGradient><linearGradient id="Gradient-34" x1="24.4" y1="-25.1" x2="24.4" y2="70" gradientUnits="userSpaceOnUse"><stop offset="0" stop-color="#fff"/><stop offset=".3" stop-color="#fab518"/></linearGradient><linearGradient id="Gradient-35" x1="24.4" y1="-25.1" x2="24.4" y2="70" gradientUnits="userSpaceOnUse"><stop offset=".6" stop-color="#f8ec46"/><stop offset=".9" stop-color="#ea5717"/></linearGradient><linearGradient id="Gradient-36" x1="23" y1="-0.7" x2="23" y2="67.2" gradientUnits="userSpaceOnUse"><stop offset="0" stop-color="#fff"/><stop offset=".3" stop-color="#fab518"/></linearGradient><linearGradient id="Gradient-37" x1="23" y1="-0.7" x2="23" y2="67.2" gradientUnits="userSpaceOnUse"><stop offset=".6" stop-color="#f8ec46"/><stop offset=".9" stop-color="#ea5717"/></linearGradient><linearGradient id="Gradient-38" x1="10.8" y1=".2" x2="10.8" y2="91.8" gradientUnits="userSpaceOnUse"><stop offset="0" stop-color="#fff"/><stop offset=".3" stop-color="#fab518"/></linearGradient><linearGradient id="Gradient-39" x1="10.8" y1=".2" x2="10.8" y2="91.8" gradientUnits="userSpaceOnUse"><stop offset=".6" stop-color="#f8ec46"/><stop offset=".9" stop-color="#ea5717"/></linearGradient><linearGradient id="Gradient-40" x1="-37.6" y1="0" x2="-37.6" y2="93.4" gradientUnits="userSpaceOnUse"><stop offset=".5" stop-color="#f8ed63"/><stop offset="1" stop-color="#ed6e19"/></linearGradient><linearGradient id="Gradient-41" x1="29.8" y1="4.9" x2="29.8" y2="65.7" gradientUnits="userSpaceOnUse"><stop offset=".5" stop-color="#f8ed63"/><stop offset="1" stop-color="#ed6e19"/></linearGradient><linearGradient id="Gradient-42" x1="11.5" y1="-27" x2="11.5" y2="67.8" gradientUnits="userSpaceOnUse"><stop offset=".5" stop-color="#f8ed63"/><stop offset="1" stop-color="#ed6e19"/></linearGradient><linearGradient id="Gradient-43" x1="13.1" y1="-11.8" x2="13.1" y2="131.3" gradientUnits="userSpaceOnUse"><stop offset=".5" stop-color="#f8ed63"/><stop offset="1" stop-color="#ed6e19"/></linearGradient><linearGradient id="Gradient-44" x1="-2.1" y1="-92" x2="-2.1" y2="1.1" gradientUnits="userSpaceOnUse"><stop offset=".5" stop-color="#f8ed63"/><stop offset="1" stop-color="#ed6e19"/></linearGradient><linearGradient id="Gradient-45" x1="-19.3" y1="2.5" x2="-19.3" y2="68.8" gradientUnits="userSpaceOnUse"><stop offset=".5" stop-color="#f8ed63"/><stop offset="1" stop-color="#ed6e19"/></linearGradient><linearGradient id="Gradient-46" x1="-37.1" y1="-0.5" x2="-37.1" y2="93.8" gradientUnits="userSpaceOnUse"><stop offset=".5" stop-color="#f8ed63"/><stop offset="1" stop-color="#ed6e19"/></linearGradient><linearGradient id="Gradient-47" x1="12.6" y1="3" x2="12.6" y2="88.2" gradientUnits="userSpaceOnUse"><stop offset=".5" stop-color="#f8ed63"/><stop offset="1" stop-color="#ed6e19"/></linearGradient><linearGradient id="Gradient-48" x1="24.5" y1="-11.7" x2="24.5" y2="65.4" gradientUnits="userSpaceOnUse"><stop offset=".5" stop-color="#f8ed63"/><stop offset="1" stop-color="#ed6e19"/></linearGradient><linearGradient id="Gradient-49" x1="11.4" y1="5.2" x2="11.4" y2="63.2" gradientUnits="userSpaceOnUse"><stop offset=".5" stop-color="#f8ed63"/><stop offset="1" stop-color="#ed6e19"/></linearGradient><linearGradient id="Gradient-50" x1="11" y1="3.3" x2="11" y2="87" gradientUnits="userSpaceOnUse"><stop offset=".5" stop-color="#f8ed63"/><stop offset="1" stop-color="#ed6e19"/></linearGradient><linearGradient id="Gradient-51" x1="-3.5" y1="51" x2="148" y2="127" gradientUnits="userSpaceOnUse"><stop offset="0" stop-color="#fff" stop-opacity="0"/><stop offset=".2" stop-color="#fff"/><stop offset=".4" stop-color="#fff" stop-opacity=".82"/><stop offset=".5" stop-color="#fff" stop-opacity="0"/><stop offset=".6" stop-color="#fff"/><stop offset=".9" stop-color="#fff"/><stop offset="1" stop-color="#fff" stop-opacity="0"/></linearGradient><mask id="Mask-1"><path d="M87.5-4.8c-5.7 0-11.5 4.1-11.5 11.6c0 6.5 4.2 10.7 9.8 10.7c5.4 0 10.7-4.8 10.7-12.5c0-5-3.8-9.8-9-9.8Zm-117.2 .5c18.5 0 28.4 5.3 28.4 5.3v15.5c0 0-10.2-7.2-25.2-7.2c-20.5 0-32.3 15.9-32.3 36.2c0 28 14.3 38.8 28.3 38.8c6.5 0 14.3-2.8 14.3-2.8c0 0 .2-14.3 .2-21c0-9.5-2.8-14.5-2.8-14.5l23 .2c0 0-2.5 6.6-2.5 14.6c0 4.7 .3 9.5 .3 14.2c0 10 2.5 16.2 2.5 16.2c0 0-11.7 6.5-34.2 6.5c-31.5 0-49.1-23-49.1-49.7c0-35.8 24.4-52.3 49.1-52.3Zm482.9 6.3c0 0-9.2-5.3-27.7-5.7c-26.7-0.5-49.2 17.2-49.2 52.4c0 25.9 19.5 49.8 48.4 49.8c22.5 0 35.5-7 35.5-7c0 0-2.7-6-2.7-16c0-4.7-0.2-9.8-0.2-14.5c0-8 2.2-13.8 2.2-13.8l-23.3-0.4c0 0 3 5.2 3 14.7c0 6.7 .5 20.5 .5 20.5c0 0-8.7 3.2-15.2 3.2c-14 0-28.3-15.5-28.3-38.5c0-17.5 10.1-37 30.6-37c15 0 26.5 7.8 26.5 7.8Zm-247-4.3l-21 3c2.4 6.3 2.4 9.3 2.3 18.9c0 2 0 4.3 0 6.9c-29.9-1.2-40.8 21.5-40.8 41.2c0 19 10 31.3 26 31.3c4.7 0 7.3-1.5 7.3-1.5l9.2-9.2l.3 8.5c0 0 9.3-0.2 15.8-0.1c-1.8-6-1.8-8.7-1.8-16.5c0-3.4 .1-64.4 .1-64.4c0 0-0.3-10.5 2.6-18.1Zm-82 2l-14 19.3l4.8 89.5c0 0-12.3-0.7-17 1.7c-2 1-4.8 7.6-4.8 7.6c0 0 5.2-1.1 9-1.1c7.5 0 8 3.8 15.5 5.3l.3 19.3c0 0-3.5 2.2-3.5 6.7c0 5.5 3.3 9.7 8.5 9.7c4.8 0 8-4.1 8-9.2c0-4.8-2.5-6.5-2.5-6.5v-20c6-1 8.4-4.8 13.3-4.8c4.5 0 10.4 .8 10.4 .8c0 0-1.9-5.8-3.9-6.8c-5.1-2.6-17-2.7-17-2.7l5.4-89Zm161.3 19.8c0 0-16.3 7-19.8 8.2c1.5-3.5 20.5-21.3 20.8-21.5c4.5-3.7 6.3-5.3 8.1-5.4c1.3 0 2.6 .8 5 2.1l.1 .1c7.4 4.3 11.6 8.7 11.6 8.7l-0.3 3.6l2.5 1.5l-0.5 2.4c0 0 1.2 2.5 1.5 3.6c2.3-0.7 8.2-3 12.7-3.8c4.9-0.9 5.5 .4 1.8 3.7c-4 3.5-11.5 7.2-16.4 9.4c5.1-0.2 10.2-0.2 14.2 .2c18.4 1.8 22.2 15.6 21.9 27.7c-0.4 13.8-0.4 38.7-0.4 38.7l-19.1-1v-42.2c0-6.3-4.4-8.3-11.4-8.7c-3.1-0.1-7.8 1-7.8 1l-0.2 50.2l-19.1 .8l-0.2-57.9c-1 .3-2 .6-3 .8c-6.3 1-8.3 .2-3.8-3.5c2.1-1.8 4.9-3.4 6.8-4.5c0 0 0 0 .1 0c1.3-0.8 2.2-1.2 2.2-1.2l-1-12.7l-3.8 1.7Zm201-18.3c-8.2 1.2-12.6 1.6-20.8 2.8c3.3 4.9 2.6 14.3 2.6 14.3l.7 60c0 0 1 10.7-1.8 17c8-0.2 11.8-0.1 19.8-0.3c-2.3-4.5-2.5-16.7-2.5-16.7l.2-61.8c0 0-0.5-8.6 1.8-15.3Zm50.5 19.3c0 1.6-1.3 3-2.9 3.2c1.9 6.9 6.3 9.3 11.2 9.6c3.6 .3 9.5-1 12.8-4.7c-0.7-0.6-1.1-1.5-1.1-2.4c0-1.8 1.4-3.2 3.2-3.2c1.7 0 3.1 1.4 3.1 3.2c0 1.7-1.4 3.1-3.1 3.1c-0.7 0-1.4-0.2-1.9-0.6c-0.4 2-0.8 6.5-1.2 10c-0.2 1.7-0.3 3.2-0.4 4c9.2 7.6 18.5 16.2 18.5 34.1c0 13.4-10.9 23.1-25.7 26.4c.1 9.2-6.8 9.7-11 7.1c-2.1 3-7.7 2.7-10.7-0.3c-4.5 3.2-12 1.6-11.6-6.8c-10.4-2.9-23.7-11.1-23.7-27c0-18.2 10.6-28 18.2-33.4c-0.3-3.1-1.2-9.8-1.7-13.9c-0.4 .2-0.8 .3-1.3 .3c-1.8 0-3.2-1.5-3.2-3.2c0-1.7 1.4-3.2 3.2-3.2c1.7 0 3.1 1.5 3.1 3.2c0 1.2-0.6 2.3-1.6 2.8c3.1 2.8 8 4.5 12.3 4.4c5.1-0.2 9.8-1.8 12.3-9.5c-1.7 0-3.1-1.5-3.1-3.2c0-1.7 1.4-3.2 3.1-3.2c1.8 0 3.2 1.5 3.2 3.2Zm-300.7 5.2c8.2 0 10.5 1.8 10.5 1.8v12c0 0-4.7-3.5-11.5-3.5c-5 0-8.8 3.7-8.8 8c0 7 4.2 8 12 15.8c4.5 4.5 11.1 14 8.2 25.2c-2.4 9-10.9 14.3-20.2 14.3c-12.6 0-17.8-3.5-17.8-3.5l.5-13.1c0 0 5.3 6.5 14.1 6.5c5.5 0 8.5-3.8 8.5-8c0-6.8-7-12.3-9.1-14.2c-7.3-6.4-12.5-10-12.5-20.3c0-7.4 7.8-21 26.1-21Zm404.5 3.1c-0.5 4.5 2.2 11.4 2.2 11.4l10.8 29.6l10.5-31.3c0 0 2-6.4 1.2-11c3.8-0.2 6.5-0.1 9.2 0h.1c2.7 .1 5.4 .2 9.2 0c-3.7 4.7-5.5 11.7-5.5 11.7c0 0-11.8 32.5-18.5 50c-4.3 11.3-8.6 22.6-19.3 29.8c-7.9-0.4-10.1-1.1-18-1.5c10.1-7.8 13.3-14.3 13.3-14.3l8.7-16.4l-20.1-49.9c-0.6 3.2-1.1 5.6-1.1 5.6c0 0-2.6-1.5-6.3-1.5c-6.6 0-12.1 5.8-14.7 10.3c-0.2 10.7-0.7 32.9-0.7 32.9c0 0-0.7 7.3 2 11.5c-8.1-0.1-11.8-0.3-20-0.4c1.7-3.8 2.2-12 2.2-12l.2-41.1c0 0 .7-8.9-2-12.4c7.2-0.1 18 .2 18 .2l.3 12.8c0 0 13.1-14.6 13.2-14.6c3.6-0.6 6-0.5 10.3 .6c0 .3-0.1 .6-0.1 .9c4-0.4 10.2-0.8 14.9-0.9Zm-544.6-1.3l-20.5 .3c0 0 1.8 5.2 1.8 13.7c0 4.5-0.3 37.8-0.3 40.3c0 12-2.4 15.5-2.4 15.5l19.7 1.7c0 0-1.8-5.8-1.8-17.3c0-1.5 .9-34.5 1.3-40c.5-7 2.2-14.2 2.2-14.2Zm-64.9 1.3l-20-0.1c0 0 2 5.6 2 14.1c0 4.5 .2 29.7 .2 34.7c0 14.2 10.7 19.8 20.7 19.8c1.6 0 5-0.3 5-0.3l11.3-12l.5 11.3l16.2 .4c0 0-1.7-6.7-1.7-16.7c0-8.5 .7-33.2 .7-37.2c0-9.5 2.1-14.6 2.1-14.6l-20 .5c0 0 1.9 2.3 1.9 13.8c0 3-0.5 24-0.5 35.7c-3.2 7.1-20.5 9.6-20.5-3.4v-32.3c0-9.5 2.1-13.7 2.1-13.7Zm156.2 11.2l.2 43c0 0-5.4 4.3-10.5 4.3c-8.2 0-14.9-9.6-14.9-21.5c0-12.6 6.7-29.8 16.9-29.8c3.8 0 8.3 4 8.3 4Zm328.1 47.8c7.2 0 13.1-6.7 13.1-15c0-8.3-5.9-15-13.1-15c-7.2 0-13.1 6.7-13.1 15c0 8.3 5.9 15 13.1 15Zm35.2 0c7.2 0 13-6.7 13-15c0-8.3-5.8-15-13-15c-7.3 0-13.1 6.7-13.1 15c0 8.3 5.8 15 13.1 15Zm-17.1-1.6c-3.3-0.1-5.7 4.5-5.9 7.8c-0.1 2.6 1 5.3 5.5 5.3c4.4 0 6.2-2.2 6.2-4.8c0-3.3-2.4-8.3-5.8-8.3Zm-405.9 62.8c0 2.7-2.1 4.8-4.8 4.8c-2.7 0-4.8-2.1-4.8-4.8c0-2.7 2.1-4.8 4.8-4.8c2.7 0 4.8 2.1 4.8 4.8Z" fill="#00ff0a" fill-rule="evenodd" transform="translate(295,23)" style="animation: 7s linear infinite both a14_t;"/></mask></defs><style>
@keyframes a0_do { 0% { stroke-dashoffset: 335px; animation-timing-function: cubic-bezier(.4,0,.6,1); } 28.571% { stroke-dashoffset: 0px; } 42.857% { stroke-dashoffset: 0px; } 71.429% { stroke-dashoffset: -335px; } 100% { stroke-dashoffset: -335px; } }
@keyframes a1_do { 0% { stroke-dashoffset: 500px; animation-timing-function: cubic-bezier(.4,0,.6,1); } 28.571% { stroke-dashoffset: 0px; } 42.857% { stroke-dashoffset: 0px; animation-timing-function: cubic-bezier(.4,0,.6,1); } 71.429% { stroke-dashoffset: -500px; } 100% { stroke-dashoffset: -500px; } }
@keyframes a2_do { 0% { stroke-dashoffset: 363px; animation-timing-function: cubic-bezier(.4,0,.6,1); } 28.571% { stroke-dashoffset: 0px; } 42.857% { stroke-dashoffset: 0px; animation-timing-function: cubic-bezier(.4,0,.6,1); } 71.429% { stroke-dashoffset: -363px; } 100% { stroke-dashoffset: -363px; } }
@keyframes a3_do { 0% { stroke-dashoffset: 250px; animation-timing-function: cubic-bezier(.4,0,.6,1); } 28.571% { stroke-dashoffset: 0px; } 42.857% { stroke-dashoffset: 0px; animation-timing-function: cubic-bezier(.4,0,.6,1); } 71.429% { stroke-dashoffset: -250px; } 100% { stroke-dashoffset: -250px; } }
@keyframes a4_do { 0% { stroke-dashoffset: 440px; animation-timing-function: cubic-bezier(.4,0,.6,1); } 28.571% { stroke-dashoffset: 0px; } 42.857% { stroke-dashoffset: 0px; animation-timing-function: cubic-bezier(.4,0,.6,1); } 71.429% { stroke-dashoffset: -440px; } 100% { stroke-dashoffset: -440px; } }
@keyframes a5_do { 0% { stroke-dashoffset: 433px; animation-timing-function: cubic-bezier(.4,0,.6,1); } 28.571% { stroke-dashoffset: 0px; } 42.857% { stroke-dashoffset: 0px; animation-timing-function: cubic-bezier(.4,0,.6,1); } 71.429% { stroke-dashoffset: -433px; } 100% { stroke-dashoffset: -433px; } }
@keyframes a6_do { 0% { stroke-dashoffset: 263px; animation-timing-function: cubic-bezier(.4,0,.6,1); } 28.571% { stroke-dashoffset: 0px; } 42.857% { stroke-dashoffset: 0px; animation-timing-function: cubic-bezier(.4,0,.6,1); } 71.429% { stroke-dashoffset: -263px; } 100% { stroke-dashoffset: -263px; } }
@keyframes a7_do { 0% { stroke-dashoffset: 252px; animation-timing-function: cubic-bezier(.4,0,.6,1); } 28.571% { stroke-dashoffset: 0px; } 42.857% { stroke-dashoffset: 0px; animation-timing-function: cubic-bezier(.4,0,.6,1); } 71.429% { stroke-dashoffset: -252px; } 100% { stroke-dashoffset: -252px; } }
@keyframes a8_do { 0% { stroke-dashoffset: 493px; animation-timing-function: cubic-bezier(.4,0,.6,1); } 28.571% { stroke-dashoffset: 0px; } 42.857% { stroke-dashoffset: 0px; animation-timing-function: cubic-bezier(.4,0,.6,1); } 71.429% { stroke-dashoffset: -493px; } 100% { stroke-dashoffset: -493px; } }
@keyframes a9_do { 0% { stroke-dashoffset: 228px; animation-timing-function: cubic-bezier(.4,0,.6,1); } 28.571% { stroke-dashoffset: 0px; } 42.857% { stroke-dashoffset: 0px; animation-timing-function: cubic-bezier(.4,0,.6,1); } 71.429% { stroke-dashoffset: -228px; } 100% { stroke-dashoffset: -228px; } }
@keyframes a10_do { 0% { stroke-dashoffset: 565px; animation-timing-function: cubic-bezier(.4,0,.6,1); } 28.571% { stroke-dashoffset: 0px; } 42.857% { stroke-dashoffset: 0px; animation-timing-function: cubic-bezier(.4,0,.6,1); } 71.429% { stroke-dashoffset: -565px; } 100% { stroke-dashoffset: -565px; } }
@keyframes a11_do { 0% { stroke-dashoffset: 231px; animation-timing-function: cubic-bezier(.4,0,.6,1); } 28.571% { stroke-dashoffset: 0px; } 42.857% { stroke-dashoffset: 0px; animation-timing-function: cubic-bezier(.4,0,.6,1); } 71.429% { stroke-dashoffset: -231px; } 100% { stroke-dashoffset: -231px; } }
@keyframes a12_do { 0% { stroke-dashoffset: 345px; animation-timing-function: cubic-bezier(.4,0,.6,1); } 28.571% { stroke-dashoffset: 0px; } 42.857% { stroke-dashoffset: 0px; animation-timing-function: cubic-bezier(.4,0,.6,1); } 71.429% { stroke-dashoffset: -345px; } 100% { stroke-dashoffset: -345px; } }
@keyframes a13_t { 0% { transform: translate(-223.2px,-15.7px); } 28.571% { transform: translate(-223.2px,-15.7px); animation-timing-function: cubic-bezier(.4,0,.6,1); } 42.857% { transform: translate(776.8px,-15.7px); } 71.428% { transform: translate(776.8px,-15.7px); } 100% { transform: translate(776.8px,-15.7px); } }
@keyframes a14_t { 0% { transform: translate(295px,23px); } 28.571% { transform: translate(295px,23px); animation-timing-function: cubic-bezier(.4,0,.6,1); } 42.857% { transform: translate(-705px,23px); } 100% { transform: translate(-705px,23px); } }
</style><path d="M124.4-15l-22.4 31.6l.1 2.1h-2.9c1.8-6.7 3.9-12.5 4.1-16.7c.4-11.2-6.7-15-16.5-14.8c-1.3 0-2.5 0-3.6 0c-9.1 .1-11.8 .1-14.4 6.8c-0.3 .6-0.5 1.2-0.8 1.9c-1.6 3.8-3.6 8.7-2.2 15.1l-3.2 8.4v.1c-2.4 0-28.6 1.5-28.6 1.5l2.7 11.8c0 0 .8-3.2 1.1-4.4c1.3 1.3 2.8 3.5 2.8 10.4c0 14.5 0 19.1-0.1 28.7c-5.1 1.9-8.2-2.6-8.9-3.7c-0.1 0-0.1 0-0.1 0c-1-1.4-1.1-14.9-1.1-26.6c-0.1-9.2-0.2-17.3-0.6-17.3c-8.7 .1-17 .2-23.6 .2v-26.1c0 0-17.5-6.6-36-6.6c-33 0-57.7 30-52.2 66.6c4 26.5 19.8 52.2 59 50.5c17-0.7 28-5.1 35.3-8c5 5.3 10.6 9 20 9c5.8 0 10.5-2 10.5-2l19.7 2c-0.1 .1 1.3-0.7 1.3-0.7l23.5 1.5c-5 7.2-10 16-10 16l3 8.5c0 0 18.3-6.5 20-6.5c7.5 0 6.4 1.6 10 3c0 0-1.3 5.7-3.5 11.7c.5 2.8 1 6.5 1.2 9c.9 9 6.2 16.5 14.8 16.5c9.2 0 13.6-6.3 15-15c1-6.5 1.2-7.5 1.2-11.2c-1-3.3-3.7-10.8-3.7-10.8c2.6-1 3.7-2.7 8.7-2.7c4.5 0 20.5 6.5 20.5 6.5l2-9c0 0-10.7-16.5-13.3-17.9c-5.1-2.6-15.7-4.6-15.7-4.6l2-33c4.9 17.8 10 36.7 32.5 40c4.7 .6 10.3-2 10.3-2c0 0 17.5-0.8 28.2-0.3c4.4 2.5 10.3 2.4 15 2.3c.9 0 1.7 0 2.5 0c11.4 0 21.2-12.9 23.8-24.3c4.2-18.6-3.8-26.3-17.8-37.5c7.4-3.6 16.3 10.5 16.3 10.5l4.2-11c0 0-10.1-27.1-18.3-27.1c-10.7 0-19.2 3.8-25 9.4c0-6.4-1.2-18.3-1.2-18.3c0 0 6-17 7-30.5l-43.5 7.8c.3 11.5 7 16.5 7.5 24.7c-17.1 0-31.8 19.8-38.3 35.7l1.9-28.8Zm336.7 11.1c-1.7-0.7-18.3-7.9-35.9-7.9c-35.8 0-56 31.1-49.7 62.5c5.5 28 20.8 55.3 60 55.3c10.3 0 14.6-1.6 22.7-4c-0.1 .3 .2 .7 .4 1c.3 .4 .6 .7 .4 1c7.7-0.2 32-1 41.5-1.2c3.4 2.6 6.9 4.8 10.8 5.7c-0.4 8.4 13.2 12.7 17.7 9.5c2.6 2.4 8.6 1.6 10.2 0c5 2.6 15.1-1.2 16.5-10c6.9-1.8 8.3-2.5 13-7.5c-0.7 1.6-0.2 .8-1.2 2c5.3 .1 44 1 44 1c0 0 3-5.8 4.8-8c-4.7-8.2-6-7.9-6.3-8.3c-0.2-0.2-0.1-0.6-0.2-2.2c-0.2-3.9-0.5-9.9-0.8-15.8c-0.4-9.3-0.9-18.5-0.8-18.7c1.3-1.6 1.5-1.6 3.1-1.4c.5 0 1.1 .1 1.9 .1c1.8 .1 3.2 2 5 3.5l12.3 31.8c0 0-1.5 7.1-6 12c-6 6.6-29 19.2-29 19.2l-3 7.5c0 0 35.1 3.2 43 3.5c10.7-7.2 19.2-19.7 23.5-31c6.7-17.5 22-61 22-61c0 0-1.9-7.1 11.5-20.5c-7.7 .4-35.5-2.7-35.5-2.7l-7 7.5l4 27.8l-5-13.4c0 0-7.5-5.3-6.2-12.7c-1.3 .1-2.5 0-3.8 0c-2.6-0.1-5.8-0.2-11.3 0c-3.4-0.1-7 .1-9.3 .4c-4.6 .2-7.8 .3-7.8 .3l.1 .3l-0.7 .1l-38.3-8.6l-1.5 10c6.5 8.8 6 19.5 6 19.5c0 0-5.5-8-9-11.5c2-17.1-0.3-18.2-5.1-20.4l-0.1-0.1c-7-3.2-10.6 6.7-12.4 13.7c-1.2 1.2-3.2 1.4-5.2 .4c.6-4.8-22.4-5.6-20.6 .2c-1.8 .8-5.6-0.2-5.8-0.6c-1.8-9.6-8.9-14.6-11.8-13.4c-5 1.2-9.2 4.5-9 8c.2 1.6 3.3 12.4 3.3 13c-3 3.2-3.4 1.6-5.8 5c0 0 0-13 0-19.8c.7-8.7 1.3-17.7 5.3-25.7l-2.3-9.5c0 0-29.5 13.1-36.6 14.1Zm-205.1 35.9c0 0 1-3 1.2-6.2c2.7-5.2 17.2-17.4 30.8-29c3.6-3.1 8.4-3.4 14.2 0c7.4 4.3 15.6 11.6 15.6 11.6l-0.2 3.6c0 0 2.6 1.6 3.6 2c2.1-0.9 4.3-2.5 6.4-4c3.7-2.7 7.1-5.1 9.1-3c2.4 2.3 3.4 9 0 12.8c-0.3 .4-3.7 5.8-4.2 6.2c13.4 6.6 23.7 23.5 23.5 33.5c-0.3 11.4 0 39.8 0 39.8c0 0-2.7 4.9-2.8 7.7c-11.6-1.8-20.5-2.2-31.7-1.8c.1-12.5-0.2-28.9-0.4-37.1c-0.1-2.7-0.1-4.5-0.1-5.1c0-2-4-1.2-4-1.2l.5 44c-10.4-0.6-21.4 .8-31.8 2.2l-2.7-9l-0.3-52.7c-4.9 0-8.4-6.2-8.2-12.5c.1-4.5 10.9-5 10.9-5l-1.9-7.3Zm-251.5-3.5h-36l2.8 9.8c-0.1 0 5.2 7.4 5.2 11.2c0 6.7-0.1 25.5-0.1 25.5c0 0-3.4 1-7.6 1c-9.8 0-16.8-8.8-16.8-29c0-17.5 7.5-28.5 22.6-29.4c13.2-0.8 29.9 10.9 29.9 10.9Zm430-10.8c13.2-0.4 27.2 12.1 27.2 12.1l-26.4 41.5c-0.1 0-15.6 3.2-19.8-6.3c-9.2-24.5-1.8-46.5 19-47.2Zm-335 21.8c.2-3.2 3.5-15.9 4.2-19.2l4 79.7c0 0-2 .4-3.7 .7c-2.4-4.9-3.4-10.1-3.4-17.7c0-0.3-0.1-2.6-0.2-5.9v-0.1c-0.4-10.9-1.2-33.3-0.9-37.5Zm72 24.8c.3-7.3 .7-19.1 8.7-20.3l5.6-4.8l-0.4 29.6l-5.2 1.6c0 0-7.4 .8-8.7-6.1Zm341.2 5.2c0 0 1.1-4.1 4-4.2c2.5-0.1 4 1.7 4 1.7l2.5 6.8l-11.7 1Zm33.3-2c0 0 1.5-1.8 4-1.8c3 .1 4.5 3.3 4.5 3.3v8l-12.5-3.5Z" fill="url(#Gradient-0)" fill-rule="evenodd" filter="drop-shadow(0px 5px 9px rgba(0,0,0,0.40))" transform="translate(102,36)"/><g transform="translate(22,20.5)"><path d="M6.2-6c0 0-17.5-6.6-36-6.6c-33 0-56.2 24.4-56.2 61.4c0 28.5 18.4 57.6 57.6 57.6c22.5 0 45-10.4 45-10.4c0 0-7.2-12-7.2-22c0-4.7 0-8.8 0-13.5c0-8 7-22.7 7-22.7h-48.2c0 0 7.8 11.8 7.8 22.7c0 6.7 .4 14.5 .4 14.5c0 0-3.4 1-7.6 1c-9.8 0-20.4-9.8-20.4-30c0-17.5 10.6-28.4 26.2-28.4c15 0 31.6 14.8 31.6 14.8Z" fill="url(#Gradient-1)" transform="translate(80,6.5)"/><path d="M72.5-8.3c0 0-68.3 .9-86.2 1c7.2 5.9 9.6 13.8 9.6 22.3c0 4.5 .2 30 .2 35c0 16 10.8 28.5 29.2 28.5c5.8 0 8.2-1.2 8.2-1.2l34.6 1.2c0 0-4.4-15.5-4.4-25.5c0-8.5 .4-34 .4-38c0-12.7 8.4-23.3 8.4-23.3Zm-39.6 22c0-8-3.2-12.6-3.2-12.6c0 0-2.4 4.8-2.4 13v33.6c0 0 5.4 1.4 5.4-2.8c0-5 .2-27.4 .2-31.2Z" fill="url(#Gradient-2)" fill-rule="evenodd" transform="translate(89.5,34)"/><path d="M29.5-20.7c.4-11.2-7.4-18.8-17.2-18.6c-12 .2-18.5 10.8-18.4 19.8c.1 5.2 1.5 9.3 3.9 12.2l-9.7 .2c5.2 7 8 12.1 8 20.6c0 4.5-1 39.7-1 42.2c0 12-7.2 23.4-7.2 23.4c0 0 30.9 1.7 46.4 2.6c-5.8-7.6-8.2-13.7-8.2-25.2c0-1.5 .4-36.5 .8-42c.5-7 2-14 5.6-22.4l-7.8 .1c3.1-3.8 4.6-8.7 4.8-12.9Z" fill="url(#Gradient-3)" fill-rule="evenodd" transform="translate(154.5,33)"/><path d="M15.9-33.5l-22.4 31.6l4.8 83.6c0 0-9.9 1.4-14.4 4c-4.2 2.4-15.2 27.6-15.2 27.6c0 0 19.5-6.4 23.2-6.4c7.5 0 6.2 1.4 9.8 2.8l-0.2 10c0 0-3.2 4.8-3.2 11.2c0 9 7.2 16.8 15.8 16.8c9.2 0 16.2-7.4 16.2-16.2c0-6.8-2.6-11.2-2.6-11.2l-0.2-10.4c2.6-1 3.8-2.6 8.8-2.6c4.5 0 22.6 6.6 22.6 6.6c0 0-9.6-25.6-14.2-28c-5.1-2.6-14-3.6-14-3.6l5.4-83.4Z" fill="url(#Gradient-4)" fill-rule="evenodd" transform="translate(188.5,25)"/><path d="M34.7-13.1l-44.8 7.4c3 7.6 7 8.9 7 24.2c-24.2 0-41.4 23.8-41.4 48.8c0 27.8 17.6 40.8 33.6 40.8c4.7 0 9.4-2 9.4-2c0 0 28.3 0 34.8 0c-2.5-5.8-5.4-22.6-5.4-30.4c0-3.4 .2-59.6 .2-59.6c0 0 3.7-21.6 6.6-29.2Zm-37.6 91c-0.1-11.1-0.1-22.3-0.2-33.4c-6.4 1-10 9.4-10 21c0 9.4 5.4 14.8 10.2 12.4Z" fill="url(#Gradient-5)" fill-rule="evenodd" transform="translate(263.1,6.4)"/><path d="M6.3-4.9c0 0-10.2-4.2-18.4-4.2c-21.3 0-34 15.2-34 29c0 21.4 22.8 29.6 21.8 33.8c-5.6 4.2-21.6-17.6-21.6-17.6l-1.8 39.4c0 0 13.4 5.8 26.8 5.8c11.4 0 24.2-9.4 26.8-20.8c4.2-18.6-6.2-30.8-20.2-42c7.4-3.6 20.2 10.2 20.2 10.2c0 0 .4-33.6 .4-33.6Z" fill="url(#Gradient-6)" transform="translate(328.3,33)"/><path d="M-6.3 7.5c10.4-1.4 24.4-2.4 34.8-1.8c-0.3-16.9-0.8-50.8-0.8-50.8c0 0 4.6-0.8 4.6 1.2c0 2.4-0.3 33.1-0.4 49.6c11.2-0.4 23.2 .4 34.8 2.2c0-16.3 .1-35 .4-48.8c.3-12.1-13-34-31.4-35.8c-12.7-1.2-42.4 13.8-42.4 13.8c0 0 .3 46.9 .4 70.4Z" fill="url(#Gradient-7)" transform="translate(369.3,107.2)"/><path d="M6.2-4.6c0 0-17.5-8-36-8c-35.8 0-56.2 24.4-56.2 61.4c0 28.5 18.4 57.6 57.6 57.6c22.5 0 45-10.4 45-10.4c0 0-7.2-12-7.2-22c0-4.7 0-8.8 0-13.5c0-8 7-22.7 7-22.7h-48.2c0 0 8.6 11.7 8.6 22.6c0 6.7 .2 14.2 .2 14.2c0 0-4 1.4-8.2 1.4c-9.8 0-20.4-9.8-20.4-30c0-17.5 8.6-28.4 26.2-28.4c15 0 31.6 14.8 31.6 14.8Z" fill="url(#Gradient-1)" transform="translate(535,7.3)"/><path d="M-10.1-5.8c8.2-1.2 36-5 44.2-6.2c-6.2 13.6-5.6 26.2-5.6 26.2l.4 60.8c0 0 1.8 17.6 7 25.6c-8 .2-37.2 .8-45.2 1c5.4-9.4 6-26.6 6-26.6l-0.4-59.6c0 0-0.2-13.2-6.4-21.2Z" fill="url(#Gradient-8)" transform="translate(543.7,9.5)"/><path d="M14.4-17.4c-1.8-5.8 .4-16.2 10.8-15.8c10 .4 10.4 10.8 9.8 15.6c2 1 4 .8 5.2-0.4c1.8-7 8-11.8 15-8.6c4.9 2.3 7.6 8 5.6 15.2c-1 3.7-3 9.7-3.2 10.4c9 9 18.1 21 16 39.4c-1.4 12.4-12.8 25.6-27 29.4c-1.4 8.8-12.6 11.4-17.6 8.8c-1.6 1.6-8.2 2.4-10.8 0c-4.5 3.2-18.6-1.6-18.2-10c-12.4-2.8-24.6-16.1-24.6-32c0-18.2 7-26.8 15.8-36.2c0-0.6-0.5-1.8-1-3.2c-2.2-6.1-6.5-17.7 4.6-22.4c2.8-1.2 12-0.4 13.8 9.2c.2 .4 4 1.4 5.8 .6Zm-2.6 47.7c0 3.7-2.4 6.7-5.4 6.7c-3 0-5.4-3-5.4-6.7c0-3.7 2.4-6.7 5.4-6.7c3 0 5.4 3 5.4 6.7Zm35.2 0c0 3.7-2.4 6.7-5.4 6.7c-3 0-5.4-3-5.4-6.7c0-3.7 2.4-6.7 5.4-6.7c3 0 5.4 3 5.4 6.7Z" fill="url(#Gradient-9)" fill-rule="evenodd" transform="translate(589.4,48.9)"/><path d="M-9.9-6.3c7.3-0.2 38-0.4 38-0.4c0 0 7.5-0.6 7.6-0.6c3.7-0.6 13-1 16.8 .6c-0.9 6-5.6 36.6-5.6 36.6c0 0-6.8-9-11.6-9.2c-4.2-0.2-6 3.2-7.8 5.4c-0.2 10.6 0 20.3 .4 30.4c.2 5 0 7.2 7 19.4c-8.1-0.1-37.7-0.7-45.8-0.8c5.2-6 7.6-20.2 7.6-20.2l.8-39.6c0 0-2.2-15.2-7.4-21.6Z" fill="url(#Gradient-10)" transform="translate(661.9,35)"/><path d="M6.9-7.2c-1.2 7.4 0 13.4 0 13.4l5 13.4l3.8-11c0 0 2.2-5.4-0.8-15.8c7.7-0.3 39.1-1.9 46.8-2.2c-13.4 13.4-15.8 18.6-15.8 18.6c0 0-14.3 38.9-21 56.4c-4.3 11.3-13.9 27.4-24.6 34.6c-7.9-0.4-39.1-1.8-47-2.2c12.8-8.6 22-12.8 30.4-22c4.5-4.9 10.6-17 10.6-17l-25.8-64.8c0 0 30.9-1.3 38.4-1.4Z" fill="url(#Gradient-11)" transform="translate(722.1,33.7)"/><path d="M-1.3 1c0 0-9.9-5.3-28.4-5.3c-24.7 0-49.1 16.5-49.1 52.3c0 26.7 17.6 49.7 49.1 49.7c22.5 0 34.2-6.5 34.2-6.5c0 0-2.5-6.2-2.5-16.2c0-4.7-0.3-9.5-0.3-14.2c0-8 2.5-14.6 2.5-14.6l-23-0.2c0 0 2.8 5 2.8 14.5c0 6.7-0.2 21-0.2 21c0 0-7.8 2.8-14.3 2.8c-14 0-28.3-10.8-28.3-38.8c0-20.3 11.8-36.2 32.3-36.2c15 0 25.2 7.2 25.2 7.2Z" fill="url(#Gradient-13)" stroke-linecap="square" stroke="url(#Gradient-12)" stroke-width="2.5" fill-rule="evenodd" transform="translate(80,6.5)"/><path d="M1.8 1.2l20 .1c0 0-2.1 4.2-2.1 13.7c0 4.5 0 29.8 0 32.3c0 13 17.3 10.5 20.5 3.4c0-11.7 .5-32.7 .5-35.7c0-11.5-1.9-13.8-1.9-13.8l20-0.5c0 0-2.1 5.1-2.1 14.6c0 4-0.7 28.7-0.7 37.2c0 10 1.7 16.7 1.7 16.7l-16.2-0.4c0 0-0.5-11.3-0.5-11.3l-11.3 12c0 0-3.4 .3-5 .3c-10 0-20.7-5.6-20.7-19.8c0-5-0.2-30.2-0.2-34.7c0-8.5-2-14.1-2-14.1Z" stroke="url(#Gradient-14)" fill="url(#Gradient-15)" stroke-width="2.5" stroke-linecap="square" fill-rule="evenodd" transform="translate(89.5,34)"/><path d="M13-31.3c-5.7 0-11.5 4.1-11.5 11.6c0 6.5 4.2 10.7 9.8 10.7c5.4 0 10.7-4.8 10.7-12.5c0-5-3.8-9.8-9-9.8Zm8.7 32.3l-20.5 .3c0 0 1.8 5.2 1.8 13.7c0 4.5-0.3 37.8-0.3 40.3c0 12-2.4 15.5-2.4 15.5l19.7 1.7c0 0-1.8-5.8-1.8-17.3c0-1.5 .9-34.5 1.3-40c.5-7 2.2-14.2 2.2-14.2Z" stroke="url(#Gradient-16)" fill="url(#Gradient-17)" stroke-width="2.5" stroke-linecap="square" fill-rule="evenodd" transform="translate(154.5,33)"/><path d="M1.7 .5l14-19.3l12.5 19.8l-5.4 89c0 0 11.9 .1 17 2.7c2 1 3.9 6.8 3.9 6.8c0 0-5.9-0.8-10.4-0.8c-4.9 0-7.3 3.8-13.3 4.8v20c0 0 2.5 1.8 2.5 6.5c0 5.1-3.2 9.2-8 9.2c-5.2 0-8.5-4.2-8.5-9.7c0-4.5 3.5-6.7 3.5-6.7l-0.3-19.3c-7.5-1.5-8-5.3-15.5-5.3c-3.8 0-9 1.1-9 1.1c0 0 2.8-6.6 4.8-7.6c4.7-2.4 17-1.7 17-1.7Zm12.8 134.8c2.7 0 4.8-2.1 4.8-4.8c0-2.7-2.1-4.8-4.8-4.8c-2.7 0-4.8 2.1-4.8 4.8c0 2.7 2.1 4.8 4.8 4.8Z" stroke="url(#Gradient-18)" fill="url(#Gradient-19)" stroke-width="2.5" stroke-linecap="square" fill-rule="evenodd" transform="translate(188.5,25)"/><path d="M23.1-2.2l-21 3c3 7.6 2.3 10.5 2.3 25.8c-29.9-1.2-40.8 21.5-40.8 41.2c0 19 10 31.3 26 31.3c4.7 0 7.3-1.5 7.3-1.5l9.2-9.2l.3 8.5c0 0 9.3-0.2 15.8-0.1c-1.8-6-1.8-8.7-1.8-16.5c0-3.4 .1-64.4 .1-64.4c0 0-0.3-10.5 2.6-18.1Zm-18.5 85.3l-0.2-43c0 0-4.5-4-8.3-4c-10.2 0-16.9 17.2-16.9 29.8c0 11.9 6.7 21.5 14.9 21.5c5.1 0 10.5-4.3 10.5-4.3Z" stroke="url(#Gradient-20)" fill="url(#Gradient-21)" stroke-width="2.5" stroke-linecap="square" fill-rule="evenodd" transform="translate(263.1,6.4)"/><path d="M-1.5 1c0 0-2.3-1.8-10.5-1.8c-18.3 0-26.1 13.6-26.1 21c0 10.3 5.2 13.9 12.5 20.3c2.1 1.9 9.1 7.4 9.1 14.2c0 4.2-3 8-8.5 8c-8.8 0-14.1-6.5-14.1-6.5l-0.5 13.1c0 0 5.2 3.5 17.8 3.5c9.3 0 17.8-5.3 20.2-14.3c2.9-11.2-3.7-20.7-8.2-25.2c-7.8-7.8-12-8.8-12-15.8c0-4.3 3.8-8 8.8-8c6.8 0 11.5 3.5 11.5 3.5c0 0 0-12 0-12Z" stroke="url(#Gradient-22)" fill="url(#Gradient-23)" stroke-width="2.5" stroke-linecap="square" fill-rule="evenodd" transform="translate(328.3,33)"/><path d="M1.4-1.9l19.1-0.8l.2-50.2c0 0 4.7-1.1 7.8-1c7 .4 11.4 2.4 11.4 8.7c0 2.4 0 42.2 0 42.2l19.1 1c0 0 0-24.9 .4-38.7c.3-12.1-3.5-25.9-21.9-27.7c-12.7-1.2-36.3 1.4-36.3 1.4c0 0 .2 65.1 .2 65.1Z" stroke="url(#Gradient-24)" fill="url(#Gradient-25)" stroke-width="2.5" stroke-linecap="square" fill-rule="evenodd" transform="translate(369.3,107.2)"/><path d="M5.2-7h11.8l.2-51.2c0 0 8.1-0.2 11.2-0.2c11.8 0 15.5 7.4 15.5 13.7c0 2.4-0.5 38-0.5 38l12 .5c0 0 .2-20.2 .5-34c.3-12.1 0-26.4-18.4-28.2c-12.7-1.2-33.5 1.5-33.5 1.5c-0.1 0 1.2 60 1.2 60Z" stroke="url(#Gradient-26)" fill="none" stroke-width="2.5" stroke-linecap="square" transform="translate(369.3,107.2)"/><path d="M1.4-1.9l19.1-0.8l.2-50.2c0 0 4.7-1.1 7.8-1c7 .4 11.4 2.4 11.4 8.7c0 2.4 0 42.2 0 42.2l19.1 1c0 0 0-24.9 .4-38.7c.3-12.1-3.5-25.9-21.9-27.7c-12.7-1.2-36.3 1.4-36.3 1.4c0 0 .2 65.1 .2 65.1Z" stroke="#fff" fill="none" stroke-width="2" stroke-linecap="square" stroke-dasharray="335 335" stroke-dashoffset="335" transform="translate(369.3,107.2)" style="animation: 7s linear infinite both a0_do;"/><path d="M-3.9-4c-2.3 4.5-4.6 13.8-4.6 13.8c0 0 28-11.4 28-11.4l1.6 1.8c0 0-11.3 7.8-11.4 12.2c-0.2 7.6 5.3 9.2 11.6 8.2c9.1-1.4 23.1-7.9 26.2-9c3.3-1.2 18.9-9.3 23.8-14.8c3.4-3.8 3.1-8.9 .8-11.2c-3.2-3.2-9.2-2.8-15.2-0.2c-1-0.4-3.6-2-3.6-2l.2-3.6c0 0-8.2-7.3-15.6-11.6c-5.8-3.4-10.6-3.1-14.2 0c-13.6 11.6-25 22.6-27.6 27.8Z" fill="url(#Gradient-27)" fill-rule="evenodd" transform="translate(344.3,35.1)"/><path d="M1.4-0.9c3.5-1.2 19.8-8.2 19.8-8.2l2.5 2l3.8-1.7l1 12.7c0 0-5.5 2.7-9.1 5.7c-4.5 3.7-2.5 4.5 3.8 3.5c7.2-1.5 17.4-6.1 21.7-8c3.6-1.7 14.6-6.4 19.8-11c3.7-3.3 3.1-4.6-1.8-3.7c-4.5 .8-10.4 3.1-12.7 3.8c-0.3-1.1-1.5-3.6-1.5-3.6c0 0 .5-2.4 .5-2.4l-2.5-1.5l.3-3.6c0 0-4.2-4.4-11.6-8.7c-5.8-3.4-5.4-3.2-13.2 3.2c-0.3 .2-19.3 18-20.8 21.5Zm35.1-8.2l-4.5 2.8l4.9 2l.8 4.5l3.7-3.3l4.3 .2l-2.2-4.5l1.9-4.4l-5 .7l-3.4-2.8Z" stroke="url(#Gradient-28)" fill="url(#Gradient-29)" stroke-width="2.5" stroke-linecap="square" fill-rule="evenodd" transform="translate(344.3,35.1)"/><path d="M-1.8 1.3c0 0-9.2-5.3-27.7-5.7c-26.7-0.5-49.2 17.2-49.2 52.4c0 25.9 19.5 49.8 48.4 49.8c22.5 0 35.5-7 35.5-7c0 0-2.7-6-2.7-16c0-4.7-0.2-9.8-0.2-14.5c0-8 2.2-13.8 2.2-13.8l-23.3-0.4c0 0 3 5.2 3 14.7c0 6.7 .5 20.5 .5 20.5c0 0-8.7 3.2-15.2 3.2c-14 0-28.3-15.5-28.3-38.5c0-17.5 10.1-37 30.6-37c15 0 26.5 7.8 26.5 7.8Z" fill="url(#Gradient-31)" stroke-linecap="square" stroke="url(#Gradient-30)" stroke-width="2.5" fill-rule="evenodd" transform="translate(535,7.2)"/><path d="M2 1c8.2-1.2 12.6-1.6 20.8-2.8c-2.3 6.7-1.8 15.3-1.8 15.3l-0.2 61.8c0 0 .2 12.2 2.5 16.7c-8 .2-11.8 .1-19.8 .3c2.8-6.3 1.8-17 1.8-17l-0.7-60c0 0 .7-9.4-2.6-14.3Z" stroke="url(#Gradient-32)" fill="url(#Gradient-33)" stroke-width="2.5" stroke-linecap="square" fill-rule="evenodd" transform="translate(543.7,9.5)"/><path d="M27.6-21.9c0 1.6-1.3 3-2.9 3.2c1.9 6.9 6.3 9.3 11.2 9.6c3.6 .3 9.5-1 12.8-4.7c-0.7-0.6-1.1-1.5-1.1-2.4c0-1.8 1.4-3.2 3.2-3.2c1.7 0 3.1 1.4 3.1 3.2c0 1.7-1.4 3.1-3.1 3.1c-0.7 0-1.4-0.2-1.9-0.6c-0.4 2-0.8 6.5-1.2 10c-0.2 1.7-0.3 3.2-0.4 4c9.2 7.6 18.5 16.2 18.5 34.1c0 13.4-10.9 23.1-25.7 26.4c.1 9.2-6.8 9.7-11 7.1c-2.1 3-7.7 2.7-10.7-0.3c-4.5 3.2-12 1.6-11.6-6.8c-10.4-2.9-23.7-11.1-23.7-27c0-18.2 10.6-28 18.2-33.4c-0.3-3.1-1.2-9.8-1.7-13.9c-0.4 .2-0.8 .3-1.3 .3c-1.8 0-3.2-1.5-3.2-3.2c0-1.7 1.4-3.2 3.2-3.2c1.7 0 3.1 1.5 3.1 3.2c0 1.2-0.6 2.3-1.7 2.8c3.2 2.8 8.1 4.5 12.4 4.4c5.1-0.2 9.8-1.8 12.3-9.5c-1.7 0-3.1-1.5-3.1-3.2c0-1.7 1.4-3.2 3.1-3.2c1.8 0 3.2 1.5 3.2 3.2Zm-21.4 67.3c7.2 0 13.1-6.7 13.1-15c0-8.3-5.9-15-13.1-15c-7.2 0-13.1 6.7-13.1 15c0 8.3 5.9 15 13.1 15Zm35.1 0c7.3 0 13.1-6.7 13.1-15c0-8.3-5.8-15-13.1-15c-7.2 0-13 6.7-13 15c0 8.3 5.8 15 13 15Zm-17-1.6c-3.3-0.1-5.7 4.5-5.9 7.8c-0.1 2.6 1 5.3 5.5 5.3c4.4 0 6.2-2.2 6.2-4.8c0-3.3-2.4-8.3-5.8-8.3Z" stroke="url(#Gradient-34)" fill="url(#Gradient-35)" stroke-width="2.5" stroke-linecap="square" fill-rule="evenodd" transform="translate(589.4,48.9)"/><path d="M2.3 1.3c7.2-0.1 18 .2 18 .2l.3 12.8c0 0 13.1-14.6 13.2-14.6c3.6-0.6 6-0.5 10.3 .6c-0.9 6-2.5 13.7-2.5 13.7c0 0-2.6-1.5-6.3-1.5c-6.6 0-12.1 5.8-14.7 10.3c-0.2 10.7-0.7 32.9-0.7 32.9c0 0-0.7 7.3 2 11.5c-8.1-0.1-11.8-0.3-20-0.4c1.7-3.8 2.2-12 2.2-12l.2-41.1c0 0 .7-8.9-2-12.4Z" stroke="url(#Gradient-36)" fill="url(#Gradient-37)" stroke-width="2.5" stroke-linecap="square" fill-rule="evenodd" transform="translate(661.9,35)"/><path d="M-1.3 1.6c-0.5 4.5 2.2 11.4 2.2 11.4l10.8 29.6l10.5-31.3c0 0 2-6.4 1.2-11c7.7-0.3 10.8 .3 18.5 0c-3.7 4.7-5.5 11.7-5.5 11.7c0 0-11.8 32.5-18.5 50c-4.3 11.3-8.6 22.6-19.3 29.8c-7.9-0.4-10.1-1.1-18-1.5c10.1-7.8 13.3-14.3 13.3-14.3l8.7-16.4l-22.9-56.8c0 0 11.5-1.1 19-1.2Z" stroke="url(#Gradient-38)" fill="url(#Gradient-39)" stroke-width="2.5" stroke-linecap="square" fill-rule="evenodd" transform="translate(722.1,33.7)"/><path d="M-6.4 4c0 0-4.7-4-23.2-4c-24.8 0-45.4 19-45.4 48.2c0 26.7 18.5 45.2 45.2 45.2c22.5 0 29.6-5.2 29.6-5.2c0 0-1.8-4.4-1.8-14.4c0-4.7 0-6.7 0-11.4c0-8 1-11.4 1-11.4h-12.6c0 0 1.4 1.3 1.4 10.8c0 6.7 0 22.4 0 22.4c0 0-7.8 4.2-19 4.2c-14 0-31.2-12.8-31.2-40.8c0-30.8 19.8-43.2 36.2-43.2c15 0 19.4 4.2 19.4 4.2Z" fill="none" stroke-linecap="square" stroke="url(#Gradient-40)" stroke-width="2.5" transform="translate(80,6.5)"/><path d="M53.5 4.9c-3.2 .1-9.6 .2-9.6 .2l.6 59.6c0 0 5.6-0.1 8.4-0.2c-0.2-3.6-0.4-7-0.4-7v-41.8c0 0 0-4.6 1-10.8Zm-36.4 .2l-11 .2c0 0 1.8 1.1 1.8 9.6c0 4.5-0.4 29.6-0.4 34.6c0 12.4 10.8 16.2 15 16.2h5.6l3.2-5.2c0 0-15.2 2-15.2-13.4c0-2.5-0.2-28.1-0.2-32.6c0-9.1 1.1-9.4 1.2-9.4Zm0 0Z" stroke="url(#Gradient-41)" fill="none" stroke-width="2.5" stroke-linecap="square" transform="translate(89.5,34)"/><path d="M13-27c-4.5 0-8.2 3-8.2 7.2c-0.1 4.6 2.9 6.8 6.2 6.8c3.5 0 7.2-2.5 7.2-7.8c.1-3.7-1.7-6.2-5.2-6.2Zm4.2 32l-10.9 .2c0 0 .5 3 .5 11.6c0 4.4-0.3 35.2-0.3 37.7c0 12-1 13-1 13l9.8 .2c-0.1 0-0.8-2.7-0.8-14.2c0-1.5 1.1-32.5 1.5-38c.5-7 1.2-10.5 1.2-10.5Z" stroke="url(#Gradient-42)" fill="none" stroke-width="2.5" stroke-linecap="square" transform="translate(154.5,33)"/><path d="M5.5 2.5l10-14.2l9 13.7l-5.8 91.5c.1 0 10.3 1 14.8 1.5c-2.7 1-2.5 1.5-7 2c-4.5 .5-4 2.2-10 3.2l-0.2 21.5c-0.1 0-2.8 0-2.8 0l-0.8-21.7c-7.4-1.5-5.4-2.5-12.4-3.8c-3.7-0.6-5.1-0.4-7.5-1.2c3.2-1.2 17.5-1.8 17.5-1.8Zm13.8 128c0-2.7 0 2.7 0 0Z" stroke="url(#Gradient-43)" fill="none" stroke-width="2.5" stroke-linecap="square" transform="translate(188.5,25)"/><path d="M23.2-92l-10.7 2c1.2 4 1 8.8 1 8.8l2 80c0 0 4.5-0.2 6.8-0.3c-0.6-6.2-0.6-13-0.6-13l.8-64.5c0 0-0.5-6.5 .8-13Zm-30.9 93c2.5 .4 6.4 0 10.4-3.5c-16.2 2-21.5-16.1-21.5-28c0-18.8 10.3-37 30.5-28.5c-2.5-4-8.2-6.2-15.7-4c-12.8 3.8-23.3 18-23.5 33.2c-0.4 23 9.7 29.3 19.7 30.8Z" stroke="url(#Gradient-44)" fill="none" stroke-width="2.5" stroke-linecap="square" transform="translate(258,100.2)"/><path d="M-4 3c0 0-2.9-1-11.1-0.2c-13.5 1.2-19.2 10.1-19.2 17.4c0 7.8 4.5 12.1 12 18.3c4.2 3.5 10 9.5 9.5 16.2c-0.5 6.5-5.3 11-10.8 11c-8.7 0-10.7-0.7-10.7-0.7l-0.2 1.5c0 0-0.1 2.2 12.4 2.2c6.8 0 15.9-5 17.3-14.2c1.3-8.2-3.5-14.8-8-19.2c-7.8-7.9-12-9-12-18c0-6.8 6.5-11 11.5-11c6.8 0 9 1.2 9 1.2c0 0 .3-4.5 .3-4.5Z" stroke="url(#Gradient-45)" fill="none" stroke-width="2.5" stroke-linecap="square" transform="translate(328.3,33)"/><path d="M-5 3.8c0 0-5.3-3.9-23.8-4.2c-26.6-0.5-46.2 16.5-46.2 48.2c0 26 20.8 46 45 46c20 0 30.8-5.8 30.8-5.8c-0.1 0-2.1-3-2.1-13c0-4.6 0-7 0-11.7c0-8 .3-12.3 .3-12.3l-12.5-0.5c0 0 1.5 3 1.5 12.5c0 6.7 .2 21 .2 21c.1 0-7.7 4.3-18.9 4.3c-17.1 0-31.3-15.8-31.3-42c0-17.5 9.2-41.3 33.8-41.3c15 0 23 6.8 23 6.8Z" fill="none" stroke-linecap="square" stroke="url(#Gradient-46)" stroke-width="2.5" transform="translate(535,7.2)"/><path d="M6.5 4.8c8.3-1.2 3.8-0.6 12.1-1.8c-1.8 6.5-1.1 14.8-1.1 14.8l.1 51.2c-0.1 0-0.8 14.5 .7 19c-8 .2-2.2 0-10.2 .2c1.9-5.7 .9-19.2 .9-19.2l-0.7-50.8c0 0 .7-9-1.8-13.5Z" stroke="url(#Gradient-47)" fill="none" stroke-width="2.5" stroke-linecap="square" transform="translate(543.7,9.5)"/><path d="M33.8-5.1c-3.9-1-6.4-2.3-8.9-6.6c-2.8 3.8-4 6.3-10.3 6.8c-4.3 .1-7-0.2-10-2c0 .9 .2 1.7 .4 2.7c.3 1.7 .8 3.7 .1 6.3c-7.6 5.4-18.5 13.8-18.5 30.7c0 16 14.3 21 23.5 24.3c-0.4 8.4 3.5 8.5 8 5.2c3.5 4.5 9.2 3.5 11.3 .5c3.9 4.3 7.8 3.8 7.7-5.5c14.8-3.2 25.2-10 25.2-23.5c0-17.8-9.8-23.6-19-31.2c.1-0.2 .1-0.5 0-1c0-1.5-0.2-4.5 .8-8.5c-3 2-6.8 2.6-10.2 1.8Zm-27.2 54.9c3.4 0 6.5-1.1 9.1-3.1c-0.5 1.3-0.8 2.8-0.8 4.4c0 5.7 4.1 10.2 9.2 10.2c5.1 0 9.2-4.5 9.2-10.2c0-1.8-0.4-3.6-1.2-5.1c2.8 2.4 6.3 3.9 10 3.9c9.3 0 16.8-8.8 16.8-19.5c0-10.8-7.5-19.5-16.8-19.5c-9.3 0-16.7 8.7-16.7 19.5c0 4.5 1.3 8.6 3.5 11.9c-1.4-0.9-3.1-1.4-4.8-1.4c-1.4 0-2.8 .3-4 .9c2.1-3.2 3.3-7.2 3.3-11.4c0-10.8-7.5-19.5-16.8-19.5c-9.3 0-16.7 8.7-16.7 19.5c0 10.7 7.4 19.5 16.7 19.5Z" stroke="url(#Gradient-48)" fill="none" stroke-width="2.5" stroke-linecap="square" transform="translate(589.4,48.9)"/><path d="M6.1 5.2c7.3-0.1 10.5 0 10.5 0c0 0-0.2 11.5-0.2 17.6c-0.2 10.6-0.3 23.4-0.3 23.4c0 0-0.2 12.8 .5 17c-8.1-0.1-1.9-0.1-10-0.2c1.5-4.5 1.2-17.5 1.2-17.5l-0.2-24.8c0 .1 0-10.4-1.5-15.4Z" stroke="url(#Gradient-49)" fill="none" stroke-width="2.5" stroke-linecap="square" transform="translate(661.9,35)"/><path d="M-3.8 5c-0.5 4.6 1.9 12.1 1.9 12.1l13.6 35.7l13.2-39c0 0 2.1-5.4 1.3-10c7.6-0.3 6.9-0.5 10.7-0.5c-3.8 5.2-5.5 11.7-5.5 11.7c0 0-9.3 26-16 43.5c-4.3 11.3-8.2 21.5-17.8 28.5c-1.7 0-4.4-0.2-6.7-0.2c4.8-5 10-15 10-15l5.8-12.5l-21.6-53.8c.1 0 8.6-0.5 11.1-0.5Z" stroke="url(#Gradient-50)" fill="none" stroke-width="2.5" stroke-linecap="square" transform="translate(722.1,33.7)"/><path d="M-1.3 1c0 0-9.9-5.3-28.4-5.3c-24.7 0-49.1 16.5-49.1 52.3c0 26.7 17.6 49.7 49.1 49.7c22.5 0 34.2-6.5 34.2-6.5c0 0-2.5-6.2-2.5-16.2c0-4.7-0.3-9.5-0.3-14.2c0-8 2.5-14.6 2.5-14.6l-23-0.2c0 0 2.8 5 2.8 14.5c0 6.7-0.2 21-0.2 21c0 0-7.8 2.8-14.3 2.8c-14 0-28.3-10.8-28.3-38.8c0-20.3 11.8-36.2 32.3-36.2c15 0 25.2 7.2 25.2 7.2Z" fill="none" stroke-linecap="square" stroke="#fff" stroke-width="2" stroke-dashoffset="500" stroke-dasharray="500 500" transform="translate(80,6.5)" style="animation: 7s linear infinite both a1_do;"/><path d="M1.8 1.2l20 .1c0 0-2.1 4.2-2.1 13.7c0 4.5 0 29.8 0 32.3c0 13 17.3 10.5 20.5 3.4c0-11.7 .5-32.7 .5-35.7c0-11.5-1.9-13.8-1.9-13.8l20-0.5c0 0-2.1 5.1-2.1 14.6c0 4-0.7 28.7-0.7 37.2c0 10 1.7 16.7 1.7 16.7l-16.2-0.4c0 0-0.5-11.3-0.5-11.3l-11.3 12c0 0-3.4 .3-5 .3c-10 0-20.7-5.6-20.7-19.8c0-5-0.2-30.2-0.2-34.7c0-8.5-2-14.1-2-14.1Z" stroke="#fff" fill="none" stroke-width="2" stroke-linecap="square" stroke-dasharray="363 363" stroke-dashoffset="363" transform="translate(89.5,34)" style="animation: 7s linear infinite both a2_do;"/><path d="M13-31.3c-5.7 0-11.5 4.1-11.5 11.6c0 6.5 4.2 10.7 9.8 10.7c5.4 0 10.7-4.8 10.7-12.5c0-5-3.8-9.8-9-9.8Zm8.7 32.3l-20.5 .3c0 0 1.8 5.2 1.8 13.7c0 4.5-0.3 37.8-0.3 40.3c0 12-2.4 15.5-2.4 15.5l19.7 1.7c0 0-1.8-5.8-1.8-17.3c0-1.5 .9-34.5 1.3-40c.5-7 2.2-14.2 2.2-14.2Z" stroke="#fff" fill="none" stroke-width="2" stroke-linecap="square" stroke-dasharray="250 250" stroke-dashoffset="250" transform="translate(154.5,33)" style="animation: 7s linear infinite both a3_do;"/><path d="M1.7 .5l14-19.3l12.5 19.8l-5.4 89c0 0 11.9 .1 17 2.7c2 1 3.9 6.8 3.9 6.8c0 0-5.9-0.8-10.4-0.8c-4.9 0-7.3 3.8-13.3 4.8v20c0 0 2.5 1.8 2.5 6.5c0 5.1-3.2 9.2-8 9.2c-5.2 0-8.5-4.2-8.5-9.7c0-4.5 3.5-6.7 3.5-6.7l-0.3-19.3c-7.5-1.5-8-5.3-15.5-5.3c-3.8 0-9 1.1-9 1.1c0 0 2.8-6.6 4.8-7.6c4.7-2.4 17-1.7 17-1.7Zm12.8 134.8c2.7 0 4.8-2.1 4.8-4.8c0-2.7-2.1-4.8-4.8-4.8c-2.7 0-4.8 2.1-4.8 4.8c0 2.7 2.1 4.8 4.8 4.8Z" stroke="#fff" fill="none" stroke-width="2" stroke-linecap="square" stroke-dasharray="440 440" stroke-dashoffset="440" transform="translate(188.5,25)" style="animation: 7s linear infinite both a4_do;"/><path d="M23.1-2.2l-21 3c3 7.6 2.3 10.5 2.3 25.8c-29.9-1.2-40.8 21.5-40.8 41.2c0 19 10 31.3 26 31.3c4.7 0 7.3-1.5 7.3-1.5l9.2-9.2l.3 8.5c0 0 9.3-0.2 15.8-0.1c-1.8-6-1.8-8.7-1.8-16.5c0-3.4 .1-64.4 .1-64.4c0 0-0.3-10.5 2.6-18.1Zm-18.5 85.3l-0.2-43c0 0-4.5-4-8.3-4c-10.2 0-16.9 17.2-16.9 29.8c0 11.9 6.7 21.5 14.9 21.5c5.1 0 10.5-4.3 10.5-4.3Z" stroke="#fff" fill="none" stroke-width="2" stroke-linecap="square" stroke-dasharray="433 433" stroke-dashoffset="433" transform="translate(263.1,6.4)" style="animation: 7s linear infinite both a5_do;"/><path d="M-1.5 1c0 0-2.3-1.8-10.5-1.8c-18.3 0-26.1 13.6-26.1 21c0 10.3 5.2 13.9 12.5 20.3c2.1 1.9 9.1 7.4 9.1 14.2c0 4.2-3 8-8.5 8c-8.8 0-14.1-6.5-14.1-6.5l-0.5 13.1c0 0 5.2 3.5 17.8 3.5c9.3 0 17.8-5.3 20.2-14.3c2.9-11.2-3.7-20.7-8.2-25.2c-7.8-7.8-12-8.8-12-15.8c0-4.3 3.8-8 8.8-8c6.8 0 11.5 3.5 11.5 3.5c0 0 0-12 0-12Z" stroke="#fff" fill="none" stroke-width="2" stroke-linecap="square" stroke-dasharray="263 263" stroke-dashoffset="263" transform="translate(328.3,33)" style="animation: 7s linear infinite both a6_do;"/><path d="M1.4-0.9c3.5-1.2 19.8-8.2 19.8-8.2l2.5 2l3.8-1.7l1 12.7c0 0-5.5 2.7-9.1 5.7c-4.5 3.7-2.5 4.5 3.8 3.5c7.2-1.5 17.4-6.1 21.7-8c3.6-1.7 14.6-6.4 19.8-11c3.7-3.3 3.1-4.6-1.8-3.7c-4.5 .8-10.4 3.1-12.7 3.8c-0.3-1.1-1.5-3.6-1.5-3.6c0 0 .5-2.4 .5-2.4l-2.5-1.5l.3-3.6c0 0-4.2-4.4-11.6-8.7c-5.8-3.4-5.4-3.2-13.2 3.2c-0.3 .2-19.3 18-20.8 21.5Zm35.1-8.2l-4.5 2.8l4.9 2l.8 4.5l3.7-3.3l4.3 .2l-2.2-4.5l1.9-4.4l-5 .7l-3.4-2.8Z" stroke="#fff" fill="none" stroke-width="2" stroke-linecap="square" stroke-dasharray="252 252" stroke-dashoffset="252" transform="translate(344.3,35.1)" style="animation: 7s linear infinite both a7_do;"/><path d="M-1.8 1.3c0 0-9.2-5.3-27.7-5.7c-26.7-0.5-49.2 17.2-49.2 52.4c0 25.9 19.5 49.8 48.4 49.8c22.5 0 35.5-7 35.5-7c0 0-2.7-6-2.7-16c0-4.7-0.2-9.8-0.2-14.5c0-8 2.2-13.8 2.2-13.8l-23.3-0.4c0 0 3 5.2 3 14.7c0 6.7 .5 20.5 .5 20.5c0 0-8.7 3.2-15.2 3.2c-14 0-28.3-15.5-28.3-38.5c0-17.5 10.1-37 30.6-37c15 0 26.5 7.8 26.5 7.8Z" fill="none" stroke-linecap="square" stroke="#fff" stroke-width="2" stroke-dasharray="493 493" stroke-dashoffset="493" transform="translate(535,7.2)" style="animation: 7s linear infinite both a8_do;"/><path d="M2 1c8.2-1.2 12.6-1.6 20.8-2.8c-2.3 6.7-1.8 15.3-1.8 15.3l-0.2 61.8c0 0 .2 12.2 2.5 16.7c-8 .2-11.8 .1-19.8 .3c2.8-6.3 1.8-17 1.8-17l-0.7-60c0 0 .7-9.4-2.6-14.3Z" stroke="#fff" fill="none" stroke-width="2" stroke-linecap="square" stroke-dasharray="228 228" stroke-dashoffset="228" transform="translate(543.7,9.5)" style="animation: 7s linear infinite both a9_do;"/><path d="M27.6-21.9c0 1.6-1.3 3-2.9 3.2c1.9 6.9 6.3 9.3 11.2 9.6c3.6 .3 9.5-1 12.8-4.7c-0.7-0.6-1.1-1.5-1.1-2.4c0-1.8 1.4-3.2 3.2-3.2c1.7 0 3.1 1.4 3.1 3.2c0 1.7-1.4 3.1-3.1 3.1c-0.7 0-1.4-0.2-1.9-0.6c-0.4 2-0.8 6.5-1.2 10c-0.2 1.7-0.3 3.2-0.4 4c9.2 7.6 18.5 16.2 18.5 34.1c0 13.4-10.9 23.1-25.7 26.4c.1 9.2-6.8 9.7-11 7.1c-2.1 3-7.7 2.7-10.7-0.3c-4.5 3.2-12 1.6-11.6-6.8c-10.4-2.9-23.7-11.1-23.7-27c0-18.2 10.6-28 18.2-33.4c-0.3-3.1-1.2-9.8-1.7-13.9c-0.4 .2-0.8 .3-1.3 .3c-1.8 0-3.2-1.5-3.2-3.2c0-1.7 1.4-3.2 3.2-3.2c1.7 0 3.1 1.5 3.1 3.2c0 1.2-0.6 2.3-1.7 2.8c3.2 2.8 8.1 4.5 12.4 4.4c5.1-0.2 9.8-1.8 12.3-9.5c-1.7 0-3.1-1.5-3.1-3.2c0-1.7 1.4-3.2 3.1-3.2c1.8 0 3.2 1.5 3.2 3.2Zm-21.4 67.3c7.2 0 13.1-6.7 13.1-15c0-8.3-5.9-15-13.1-15c-7.2 0-13.1 6.7-13.1 15c0 8.3 5.9 15 13.1 15Zm35.1 0c7.3 0 13.1-6.7 13.1-15c0-8.3-5.8-15-13.1-15c-7.2 0-13 6.7-13 15c0 8.3 5.8 15 13 15Zm-17-1.6c-3.3-0.1-5.7 4.5-5.9 7.8c-0.1 2.6 1 5.3 5.5 5.3c4.4 0 6.2-2.2 6.2-4.8c0-3.3-2.4-8.3-5.8-8.3Z" stroke="#fff" fill="none" stroke-width="2" stroke-linecap="square" stroke-dasharray="565 565" stroke-dashoffset="565" transform="translate(589.4,48.9)" style="animation: 7s linear infinite both a10_do;"/><path d="M2.3 1.3c7.2-0.1 18 .2 18 .2l.3 12.8c0 0 13.1-14.6 13.2-14.6c3.6-0.6 6-0.5 10.3 .6c-0.9 6-2.5 13.7-2.5 13.7c0 0-2.6-1.5-6.3-1.5c-6.6 0-12.1 5.8-14.7 10.3c-0.2 10.7-0.7 32.9-0.7 32.9c0 0-0.7 7.3 2 11.5c-8.1-0.1-11.8-0.3-20-0.4c1.7-3.8 2.2-12 2.2-12l.2-41.1c0 0 .7-8.9-2-12.4Z" stroke="#fff" fill="none" stroke-width="2" stroke-linecap="square" stroke-dasharray="231 231" stroke-dashoffset="231" transform="translate(661.9,35)" style="animation: 7s linear infinite both a11_do;"/><path d="M-1.3 1.6c-0.5 4.5 2.2 11.4 2.2 11.4l10.8 29.6l10.5-31.3c0 0 2-6.4 1.2-11c7.7-0.3 10.8 .3 18.5 0c-3.7 4.7-5.5 11.7-5.5 11.7c0 0-11.8 32.5-18.5 50c-4.3 11.3-8.6 22.6-19.3 29.8c-7.9-0.4-10.1-1.1-18-1.5c10.1-7.8 13.3-14.3 13.3-14.3l8.7-16.4l-22.9-56.8c0 0 11.5-1.1 19-1.2Z" stroke="#fff" fill="none" stroke-width="2" stroke-linecap="square" stroke-dasharray="345 345" stroke-dashoffset="345" transform="translate(722.1,33.7)" style="animation: 7s linear infinite both a12_do;"/></g><g transform="translate(30.2,20.2)"><path fill="url(#Gradient-51)" d="M7 0h267l-98.5 189l-278-2.5Z" mask="url(#Mask-1)" transform="translate(-165.9,80.8) translate(-57.2,-96.5)" style="animation: 7s linear infinite both a13_t;"/></g></svg>